{"asset":{"version":"2.0","generator":"Blockbench 4.12.4 glTF exporter"},"scenes":[{"nodes":[7],"name":"blockbench_export"}],"scene":0,"nodes":[{"name":"trunk","mesh":0},{"name":"trunk","children":[0]},{"rotation":[0,0.5555702330196022,0,0.8314696123025452],"translation":[0,-0.375,0],"name":"cone","mesh":1},{"rotation":[0,-0.8064446042674825,0,0.5913096483635825],"translation":[0,-0.25,0],"name":"cone","mesh":2},{"rotation":[0,0.043619387365336,0,0.9990482215818578],"translation":[0,-0.125,0],"name":"cone","mesh":3},{"rotation":[0,0.7372773368101241,0,0.6755902076156602],"name":"cone","mesh":4},{"translation":[0,0.5,0],"name":"branches","children":[2,3,4,5]},{"children":[1,6]}],"bufferViews":[{"buffer":0,"byteOffset":0,"byteLength":720,"target":34962,"byteStride":12},{"buffer":0,"byteOffset":720,"byteLength":720,"target":34962,"byteStride":12},{"buffer":0,"byteOffset":1440,"byteLength":480,"target":34962,"byteStride":8},{"buffer":0,"byteOffset":1920,"byteLength":144,"target":34963},{"buffer":0,"byteOffset":2064,"byteLength":576,"target":34962,"byteStride":12},{"buffer":0,"byteOffset":2640,"byteLength":576,"target":34962,"byteStride":12},{"buffer":0,"byteOffset":3216,"byteLength":384,"target":34962,"byteStride":8},{"buffer":0,"byteOffset":3600,"byteLength":96,"target":34963},{"buffer":0,"byteOffset":3696,"byteLength":576,"target":34962,"byteStride":12},{"buffer":0,"byteOffset":4272,"byteLength":576,"target":34962,"byteStride":12},{"buffer":0,"byteOffset":4848,"byteLength":384,"target":34962,"byteStride":8},{"buffer":0,"byteOffset":5232,"byteLength":96,"target":34963},{"buffer":0,"byteOffset":5328,"byteLength":576,"target":34962,"byteStride":12},{"buffer":0,"byteOffset":5904,"byteLength":576,"target":34962,"byteStride":12},{"buffer":0,"byteOffset":6480,"byteLength":384,"target":34962,"byteStride":8},{"buffer":0,"byteOffset":6864,"byteLength":96,"target":34963},{"buffer":0,"byteOffset":6960,"byteLength":576,"target":34962,"byteStride":12},{"buffer":0,"byteOffset":7536,"byteLength":576,"target":34962,"byteStride":12},{"buffer":0,"byteOffset":8112,"byteLength":384,"target":34962,"byteStride":8},{"buffer":0,"byteOffset":8496,"byteLength":96,"target":34963}],"buffers":[{"byteLength":8592,"uri":"data:application/octet-stream;base64,"}],"accessors":[{"bufferView":0,"componentType":5126,"count":60,"max":[0.0360843762755394,0.625,0.03125],"min":[-0.0360843762755394,0,-0.03125],"type":"VEC3"},{"bufferView":1,"componentType":5126,"count":60,"max":[0.8660292625427246,1,1],"min":[-0.8660292625427246,-1,-1],"type":"VEC3"},{"bufferView":2,"componentType":5126,"count":60,"max":[0.6875,0.75],"min":[0,0],"type":"VEC2"},{"bufferView":3,"componentType":5123,"count":72,"max":[59],"min":[0],"type":"SCALAR"},{"bufferView":4,"componentType":5126,"count":48,"max":[0.21875,0.25,0.21875],"min":[-0.21875,0,-0.21875],"type":"VEC3"},{"bufferView":5,"componentType":5126,"count":48,"max":[0.7525767087936401,0.6585047841072083,0.7525767087936401],"min":[-0.7525767087936401,-1,-0.7525767087936401],"type":"VEC3"},{"bufferView":6,"componentType":5126,"count":48,"max":[0.6530815362930298,0.7659143805503845],"min":[0,0],"type":"VEC2"},{"bufferView":7,"componentType":5123,"count":48,"max":[47],"min":[0],"type":"SCALAR"},{"bufferView":8,"componentType":5126,"count":48,"max":[0.1875,0.25,0.1875],"min":[-0.1875,0,-0.1875],"type":"VEC3"},{"bufferView":9,"componentType":5126,"count":48,"max":[0.800000011920929,0.6000000238418579,0.800000011920929],"min":[-0.800000011920929,-1,-0.800000011920929],"type":"VEC3"},{"bufferView":10,"componentType":5126,"count":48,"max":[0.7914390563964844,0.7860028147697449],"min":[0,0],"type":"VEC2"},{"bufferView":11,"componentType":5123,"count":48,"max":[47],"min":[0],"type":"SCALAR"},{"bufferView":12,"componentType":5126,"count":48,"max":[0.15625,0.25,0.15625],"min":[-0.15625,0,-0.15625],"type":"VEC3"},{"bufferView":13,"componentType":5126,"count":48,"max":[0.847998321056366,0.5299989581108093,0.847998321056366],"min":[-0.847998321056366,-1,-0.847998321056366],"type":"VEC3"},{"bufferView":14,"componentType":5126,"count":48,"max":[0.8723331093788147,0.9009162187576294],"min":[0.002666875021532178,0.09375],"type":"VEC2"},{"bufferView":15,"componentType":5123,"count":48,"max":[47],"min":[0],"type":"SCALAR"},{"bufferView":16,"componentType":5126,"count":48,"max":[0.125,0.25,0.125],"min":[-0.125,0,-0.125],"type":"VEC3"},{"bufferView":17,"componentType":5126,"count":48,"max":[0.8944271802902222,0.4472139775753021,0.8944271802902222],"min":[-0.8944271802902222,-1,-0.8944271802902222],"type":"VEC3"},{"bufferView":18,"componentType":5126,"count":48,"max":[0.9375,0.9858806133270264],"min":[0.005795625038444996,0],"type":"VEC2"},{"bufferView":19,"componentType":5123,"count":48,"max":[47],"min":[0],"type":"SCALAR"}],"materials":[{"pbrMetallicRoughness":{"metallicFactor":0,"roughnessFactor":1,"baseColorTexture":{"index":0}},"alphaMode":"MASK","alphaCutoff":0.05,"doubleSided":true},{"pbrMetallicRoughness":{"metallicFactor":0,"roughnessFactor":1,"baseColorTexture":{"index":1}},"alphaMode":"MASK","alphaCutoff":0.05,"doubleSided":true}],"textures":[{"sampler":0,"source":0,"name":"pine_trunk.png"},{"sampler":1,"source":1,"name":"pine_branches.png"}],"samplers":[{"magFilter":9728,"minFilter":9728,"wrapS":33071,"wrapT":33071},{"magFilter":9728,"minFilter":9728,"wrapS":33071,"wrapT":33071}],"images":[{"mimeType":"image/png","uri":"data:image/png;base64,"},{"mimeType":"image/png","uri":"data:image/png;base64,"}],"meshes":[{"primitives":[{"mode":4,"attributes":{"POSITION":0,"NORMAL":1,"TEXCOORD_0":2},"indices":3,"material":0}]},{"primitives":[{"mode":4,"attributes":{"POSITION":4,"NORMAL":5,"TEXCOORD_0":6},"indices":7,"material":1}]},{"primitives":[{"mode":4,"attributes":{"POSITION":8,"NORMAL":9,"TEXCOORD_0":10},"indices":11,"material":1}]},{"primitives":[{"mode":4,"attributes":{"POSITION":12,"NORMAL":13,"TEXCOORD_0":14},"indices":15,"material":1}]},{"primitives":[{"mode":4,"attributes":{"POSITION":16,"NORMAL":17,"TEXCOORD_0":18},"indices":19,"material":1}]}]}