<svg width="100" height="100" viewBox="0 0 100 100" fill="none" xmlns="http://www.w3.org/2000/svg">
<path d="M50 50C55.3043 50 60.3914 47.8929 64.1421 44.1421C67.8929 40.3914 70 35.3043 70 30C70 24.6957 67.8929 19.6086 64.1421 15.8579C60.3914 12.1071 55.3043 10 50 10C44.6957 10 39.6086 12.1071 35.8579 15.8579C32.1071 19.6086 30 24.6957 30 30C30 35.3043 32.1071 40.3914 35.8579 44.1421C39.6086 47.8929 44.6957 50 50 50ZM42.8594 57.5C27.4688 57.5 15 69.9687 15 85.3594C15 87.9219 17.0781 90 19.6406 90H80.3594C82.9219 90 85 87.9219 85 85.3594C85 69.9687 72.5313 57.5 57.1406 57.5H42.8594Z" fill="white"/>
</svg>
