# Made in Blockbench 4.12.4
mtllib empty_tile.mtl

o cylinder
v 0 0 0
v 0 0.25 0
v 0.875 0 0.5051814855409227
v 0.875 0.25 0.5051814855409227
v 0.8749999999999999 0 -0.5051814855409223
v 0.8749999999999999 0.25 -0.5051814855409223
v -5.551115123125783e-17 0 -1.0103629710818451
v -5.551115123125783e-17 0.25 -1.0103629710818451
v -0.875 0 -0.5051814855409225
v -0.875 0.25 -0.5051814855409225
v -0.875 0 0.5051814855409222
v -0.875 0.25 0.5051814855409222
v -6.661338147750939e-16 0 1.010362971081845
v -6.661338147750939e-16 0.25 1.010362971081845
vt 1.0103625 0.125
vt 0.50518125 1
vt 0 0.125
vt 0 0.75
vt 1.0103625 0.75
vt 1.0103625 1
vt 0 1
vt 0.50518125 0.125
vt 1.0103625 1
vt 0 1
vt 0.50518125 0.125
vt 1.0103625 1
vt 0 1
vt 0 0.75
vt 1.0103625 0.75
vt 1.0103625 1
vt 0 1
vt 1.0103625 0.125
vt 0.50518125 1
vt 0 0.125
vt 0 0.125
vt 1.0103625 0.125
vt 0.50518125 1
vt 0 0.75
vt 1.0103625 0.75
vt 1.0103625 1
vt 0 1
vt 1.0103625 1
vt 0 1
vt 0.50518125 0.125
vt 0 1
vt 0.50518125 0.125
vt 1.0103625 1
vt 0 0.75
vt 1.0103625 0.75
vt 1.0103625 1
vt 0 1
vt 0.50518125 1
vt 0 0.125
vt 1.0103625 0.125
vt 0.50518125 1
vt 0 0.125
vt 1.0103625 0.125
vt 0 0.75
vt 1.0103625 0.75
vt 1.0103625 1
vt 0 1
vt 0 1
vt 0.50518125 0.125
vt 1.0103625 1
vt 1.0103625 1
vt 0 1
vt 0.50518125 0.125
vt 0 0.75
vt 1.0103625 0.75
vt 1.0103625 1
vt 0 1
vt 0 0.125
vt 1.0103625 0.125
vt 0.50518125 1
vn 0 -1 0
vn 1 0 0
vn 0 1 0
vn 0 -1 0
vn 0.5000000000000002 0 -0.8660254037844386
vn 0 1 0
vn 0 -1 0
vn -0.5000000000000001 0 -0.8660254037844386
vn 0 1 0
vn 0 -1 0
vn -1 0 5.551115123125783e-17
vn 0 1 0
vn 0 -1 0
vn -0.5000000000000004 0 0.8660254037844384
vn 0 1 0
vn 0 -1 0
vn 0.49999999999999956 0 0.8660254037844389
vn 0 1 0
usemtl none
f 5/1/1 3/2/1 1/3/1
f 3/4/2 5/5/2 6/6/2 4/7/2
f 4/8/3 6/9/3 2/10/3
f 7/11/4 5/12/4 1/13/4
f 5/14/5 7/15/5 8/16/5 6/17/5
f 6/18/6 8/19/6 2/20/6
f 9/21/7 7/22/7 1/23/7
f 7/24/8 9/25/8 10/26/8 8/27/8
f 8/28/9 10/29/9 2/30/9
f 11/31/10 9/32/10 1/33/10
f 9/34/11 11/35/11 12/36/11 10/37/11
f 10/38/12 12/39/12 2/40/12
f 13/41/13 11/42/13 1/43/13
f 11/44/14 13/45/14 14/46/14 12/47/14
f 12/48/15 14/49/15 2/50/15
f 3/51/16 13/52/16 1/53/16
f 13/54/17 3/55/17 4/56/17 14/57/17
f 14/58/18 4/59/18 2/60/18